<?xml version="1.0" encoding="UTF-8"?>
<svg id="a" data-name="through-the-word-icon" xmlns="http://www.w3.org/2000/svg" viewBox="0 0 500 424.625">
  <path d="M497.73009,415.7682l-92.25256-95.75657c-3.61581-3.96544-4.80282-5.83882-8.25462-5.83882l-2.60979.00406c-.68187-.41296-1.41314-.67513-2.29297-.77024-1.55476-1.24255-3.15042-2.4847-4.82751-3.72318-1.14186-.07926-2.27985-.1825-3.4028-.29387-6.4444-.64302-12.54343-1.75429-18.44681-3.13951-11.36954-2.67167-21.97772-6.37087-32.75183-9.74491-2.50405-.75439-5.0085-1.52016-7.50867-2.24651-11.12453-3.26307-22.0719-5.99774-32.16222-6.744-24.36678-1.7864-34.63229,11.1537-41.22912,25.66965,0-.02357-.00347-.03983-.00733-.06341-.62746-1.38156-1.28693-2.74686-1.99159-4.08859-3.1319-5.96563-7.11701-11.42766-12.72825-15.36911-.94199-.66294-1.93141-1.28604-2.9656-1.86159-1.19279-.65522-2.45891-1.24255-3.79101-1.77461-5.30795-2.10344-11.75389-3.09601-19.71678-2.51234-4.20777.31338-8.57144.9686-13.02386,1.86932-22.07767,3.23502-40.7016,11.86054-61.99899,16.86611-5.89412,1.38522-12.00279,2.49648-18.43948,3.13951-1.12102.11137-2.25901.21461-3.40473.29387-1.98387,1.46082-3.90793,2.92937-5.78453,4.41376h-.17905c-1.49416,0-2.72826.22233-3.93224.84178h-1.82216c-3.44988,0-5.5642,1.13484-9.01058,5.22343L1.99437,417.02254c-4.28495,4.17558-1.7338,5.59291,8.3187,5.59291l82.19426-4.51335,128.07764-7.02568c.97206,2.16725,3.05434,3.65978,5.48121,3.65978h47.87264c2.42688,0,4.50722-1.49253,5.48121-3.65978l128.43189,7.02568,82.42582,4.51335c8.86549-.4406,12.44544-1.77461,7.45235-6.84725ZM484.22193,414.26388c-.00579.01992-.00579.02764-.00733.04349-4.26218-.15486-8.53941-.3333-12.83555-.52393-.48237-.01179-.96277-.03577-1.44169-.05934-4.07927-.17884-8.18323-.36947-12.30032-.56783-.67454-.0317-1.35641-.06747-2.03288-.10324l-9.53231-.59547c-2.95825-.26989-35.79498-9.4112-49.51422-14.32125-8.93302-3.19519-17.8946-6.61312-26.87467-9.81238-11.57872-4.12802-35.16948-10.83626-35.16948-10.83626-19.26258-3.98495-38.11805-3.38176-52.31966,9.33601-3.82303,3.42159-6.38767,10.14568-8.49619,15.99628-.52559,1.46895-1.02879,2.87409-1.5073,4.16785,0,0-42.73448.00813-43.97435,0-.46732-1.45676-.84588-3.07203-1.18893-4.65967-.68226-3.15983-1.22868-6.19244-2.07456-7.52604-9.21395-14.53587-30.15902-20.96608-47.98028-18.62039-40.92197,5.38642-82.087,32.70753-122.05543,36.23642,1.13452-.0317,2.31381-.07967,3.51432-.11503l-12.78847.74992c-.67454.03577-1.3568.07154-2.02941.10324-4.11514.19835-8.21912.38898-12.30225.56783-.48044.02357-.95315.04756-1.43938.05934-4.29614.19063-8.57916.36907-12.83362.52393-.93077-1.88923,2.88107-4.42189,5.04979-6.21601,7.09617-5.8189,17.41032-12.65436,23.57184-19.49347,44.42083-5.46568,90.33429-38.75648,142.25803-39.01458.78956,0,1.57714.00772,2.36668.01585.33727.00772.67263.03577,1.00641.03577.4596.02357.91572.02764,1.37146.05934.4241.02398.85359.05569,1.27385.07967.36542.0317.73472.04756,1.09861.07113.48044.04796.95315.09552,1.43938.1512.3091.02764.6236.05528.93463.08698.51246.05569,1.03074.11909,1.54897.19063.27128.0317.54064.06341.81385.10324.54642.0756,1.09671.16258,1.64315.24997.23344.0439.4727.0756.7139.11503.57843.09145,1.15727.20648,1.74112.31785.1922.03943.38821.07113.59157.11503.60894.11096,1.20979.2581,1.81832.39305.16593.03577.32801.07113.49934.10324.63132.1508,1.26457.30932,1.89743.46824.12619.0317.26202.06747.3994.09511.65795.17884,1.31551.36541,1.96728.5597.09802.02398.20182.04756.29945.08332.67649.19876,1.35101.41296,2.02555.6353.06985.01585.14355.03983.20915.06341.69154.23046,1.37571.47637,2.0576.72228.05092.01626.10378.03577.15472.05569.70464.24997,1.40002.52393,2.09347.80967.01852.00813.05094.01585.06946.02398.72007.29387,1.42278.5914,2.12742.90519,12.37556,5.52503,20.47043,14.34889,24.96993,26.98333l6.84344-69.70159c.00577-.07154.00962-.14307.01503-.19063.00772.01992.00772.15486.00772.35728l.06792,4.03291,4.64267,65.50204c11.33366-20.67221,28.55759-33.23511,55.02747-33.49322.56881-.00813,1.12681.00772,1.69561.01585l-.01698-.01585c.38823.00772.7687.01585,1.15498.02357,1.03844.01626,2.07842.03983,3.11878.07154.53294.02398,1.06429.05569,1.59759.08739,1.05156.05569,2.10466.11909,3.15621.19063.59157.04756,1.18122.10324,1.77125.15852.9381.08373,1.87466.17478,2.81123.27802.78375.08739,1.5563.1825,2.32886.27802.69926.09105,1.39076.18657,2.08227.27761,1.09632.15486,2.18569.31785,3.28201.50035.31489.05934.64099.11909.95933.16665,28.56297,4.86656,55.39483,17.52457,81.33104,26.85652,9.30656,3.30656,18.58457,6.22008,27.88496,8.26417,3.60848.77797,7.19612,1.42099,10.77604,1.86159,1.95959,2.16319,4.3301,4.3345,6.88316,6.46598,3.37077,2.6676,6.89245,5.34293,10.23695,7.99428,2.28757,1.74656,4.49603,3.42159,6.45559,5.03321,1.87659,1.55593,4.97415,3.65205,5.1779,5.41447.23925.26583.4897.53572.71197.80154-.27476-.01585-.55376-.02357-.83083-.04349Z" style="fill: #fff; stroke-width: 0px;"/>
  <path d="M186.78546,262.30511c3.10139,1.83395,12.41336,5.53356,24.06345,5.3348-7.69701-16.2426-4.8688-43.76205,14.26952-65.52602,13.59074-15.48048,17.47822-25.98303,19.00442-30.67116.7008-2.14327.78184-3.1834.78184-3.1834,6.21439,19.22358.62744,41.42043.62744,41.42043,33.87092-14.71064,14.42195-72.44886,14.42195-72.44886,43.15474,28.30962,34.23096,100.46054,34.23096,100.46054,11.83107-10.26071,9.59097-42.0793,9.59097-42.0793,9.48137,37.14527,6.00104,60.81838-1.20398,75.76721,20.04826-16.30235,57.78196-64.82772,8.60501-179.25589,0,0,13.00341,55.59454-4.37136,77.38655,0,0-5.41911-130.34967-87.67938-167.12546,0,0,50.00585,96.1297-3.94729,132.57626,0,0,3.21641-40.9717-12.99762-73.05205,0,0,.16015,1.85387-.42371,5.87458-1.2719,8.74867-4.9182,28.53561-23.82072,60.09204-32.71404,54.59831-20.58892,116.98075,8.84851,134.42973Z" style="fill: #fff; stroke-width: 0px;"/>
</svg>