<?xml version="1.0" encoding="UTF-8"?>
<svg id="a" data-name="Layer 1" xmlns="http://www.w3.org/2000/svg" viewBox="0 0 800 352">
  <path d="M732.15564,256.32519c9.90551-12.06395,18.22295-24.98154,21.80712-40.45228,5.90018-25.46698-1.5802-47.62697-16.91481-67.76388-11.12576-14.60987-25.056-26.17507-40.23274-36.33346-.68626-.45933-1.31424-1.0691-2.40487-.53352,3.75572,4.44868,7.71033,8.71076,11.19497,13.32736,28.08897,37.21412,26.65878,78.81499-3.96621,115.1057-19.94577,23.63594-45.36861,39.89163-72.87189,53.14898-38.63454,18.623-79.5702,29.84804-121.69749,37.09981-59.34572,10.21571-118.95138,10.64133-178.77699,5.21214-50.66794-4.59812-100.63178-12.8364-149.51516-27.14095-1.57867-.46197-3.14794-.95598-4.92874-1.49811,3.33673-8.26356,9.99256-13.4068,16.71726-18.17457,6.19136-4.38958,11.66485-9.22594,16.09428-15.41831,3.79275-5.30227,8.57499-9.82103,13.89156-13.57886,19.4418-13.74171,39.39437-25.91802,62.65453-33.20348,17.55979-5.50001,36.13581-8.3842,52.55013-17.90687,10.47261-6.07561,23.04675-6.05322,34.81672-8.04209,24.92613-4.21199,46.43037-15.9446,66.54766-30.40297,12.07194-8.67614,25.00611-12.51479,39.76035-11.54638,24.60409,1.6149,49.22759,3.08368,73.90503,2.73569,10.83649-.1528,21.64039-.35467,32.15667,2.91148.7742.24046,1.6685.26802,2.48127.17378,1.53058-.1774,3.99934,1.03979,4.37955-.8807.487-2.46011-2.33755-2.40938-3.92904-2.70717-3.71898-.69587-3.73162-2.13437-1.2797-4.44566,2.63732-2.48615,5.55641-4.20874,9.39434-3.71725,1.27243.16297,2.99751.77559,3.68963-.52972.90602-1.70867-1.06036-2.55795-1.97761-3.5906-3.60724-4.06102-14.3301-6.11936-19.96401-2.92258-9.62368,5.46056-19.45205,5.02039-29.5119,2.40072-18.1026-4.71402-36.28814-8.00073-55.18605-7.45942-12.23916.35058-24.08609-2.62521-34.70879-9.32454-2.14355-1.35184-4.28407-2.22828-.90645-4.59661,1.07885-.75648,1.42485-2.16119,1.74921-3.49624.87984-3.62117,2.45375-6.90465,5.45813-9.26383,1.19978-.94214,1.99647-2.05322,1.16252-3.37422-3.25776-5.16054-1.90078-11.05722-2.58472-16.56663-1.77652-14.31134-10.93673-21.82309-25.30158-19.88716-13.55748,1.82713-18.09808,7.15378-18.05283,20.87041.01694,5.13494.88555,10.1576,1.86154,15.44931-4.8159-1.12912-8.87566-2.58058-12.09467-6.08521-3.76896-4.10345-9.06537-5.48976-14.2189-6.77135-7.3041-1.81639-13.07783-5.54947-17.08813-11.98481-1.85974-2.98428-4.26851-5.53147-6.94031-7.82122-4.32057-3.70277-5.65107-8.49701-4.88996-13.93918,1.11016-7.93821,3.6867-15.50679,6.18231-23.07729,1.04111-3.1582,3.10702-5.31985,6.74664-5.79945,3.4515-.45482,6.85606-1.29706,10.25956-2.0652,1.04806-.23655,2.5885-.35263,2.18807-2.04262-.2547-1.07508-1.32141-1.39344-2.39971-1.38357-.16648.00152-.33514.01025-.49924-.01133-2.18843-.28777-5.25908,1.42-6.36448-1.2053-1.24467-2.95608.72727-5.72582,2.64645-8.08102,3.38174-4.15014,7.29687-6.71258,13.13932-6.6206,82.97113,1.30629,164.68378,10.88371,243.88732,36.91097,31.53912,10.36414,61.87404,23.43044,89.53643,42.06486,18.53315,12.48467,35.2567,26.90396,46.58117,46.55991,14.02514,24.3436,14.40089,49.03043.55108,73.55308-10.61246,18.79045-25.98412,33.12543-43.83973,44.95063-.31472-.27619-.62938-.55241-.9441-.8286ZM649.14774,160.89586c9.9738,0,19.94985.10871,29.91956-.0933,1.95289-.03956,5.16174,1.75987,5.80107-1.64578.61303-3.26562-2.28324-4.43545-4.85392-5.33833-1.24161-.43608-2.54615-.76051-3.84916-.94405-18.04914-2.5422-36.10218-2.48936-54.13723.11293-1.77396.25594-3.54566.88167-5.18384,1.63004-1.88137.8595-3.46315,2.25239-3.05933,4.61254.49488,2.89263,2.91762,1.58427,4.44467,1.60228,10.30487.12161,20.61189.06341,30.91816.06366Z" style="fill: #1b3053; stroke-width: 0px;"/>
  <path d="M66.72823,96.66486c-9.23287,11.28922-16.95375,23.45761-20.57155,37.74545-5.6277,22.22551-1.16029,42.81554,11.09419,61.83412,11.90934,18.48291,28.24905,32.42968,46.46478,44.61252.92044-2.79172-1.29602-3.78333-2.50014-5.16348-12.19754-13.98046-21.70907-29.39378-25.23797-47.89319-4.77123-25.01204,1.86384-47.38963,16.47437-67.65654,17.54322-24.33496,41.34389-41.19016,67.43715-55.07086,37.05042-19.70952,76.7407-31.77557,117.71961-40.01865,28.71847-5.77684,57.76299-8.88175,86.95476-10.83728,5.1399-.34432,5.26671-.15609,3.18511,4.61515-3.12454,7.16186-6.8917,13.92815-11.17455,20.49803-6.21185,9.52903-12.3433,19.63239-9.5571,31.59636,3.93633,16.90218,11.62366,31.83636,26.79185,41.69718,10.39038,6.75477,11.02976,9.46979,3.30405,19.24215-8.35595,10.56962-20.13666,15.83226-32.71644,18.85027-15.21479,3.6502-29.56099,8.9426-42.60252,17.64703-7.33989,4.89888-15.49689,4.28002-23.67988,3.25137-3.96096-.49792-7.90602-1.20034-11.88159-1.48615-6.3206-.45444-10.78516,2.05287-13.29495,8.22542-2.68792,6.61063-4.6306,7.25301-11.03381,4.3026-3.01123-1.38748-5.93427-3.03678-8.70858-4.85509-11.06013-7.24883-23.29542-10.41289-36.37699-10.71031-7.00384-.15923-13.93897-.91735-20.88117-1.82949-6.13589-.8062-9.94646-3.86427-11.86431-9.77941-2.02367-6.2415-3.59474-7.05851-9.43671-4.1671-6.79981,3.36546-14.30152,2.77634-21.34738,4.63626-7.75028,2.04585-15.36667,4.35141-22.22082,8.61779-1.62518,1.01161-3.91129,2.08064-3.22241,4.48186.61656,2.14911,2.95106,1.74044,4.71852,1.90317,10.29241.94753,20.65608,1.9338,30.19121,6.13667,9.00451,3.96897,19.13391,1.81546,28.01555,5.8789.14741.06742.34189.03508.48578.10672,19.09705,9.50996,39.77967,14.89849,59.45255,22.90241,3.49805,1.42317,6.69088,3.59596,10.60829,5.74241-11.62496,9.14893-19.9169,20.536-28.78274,31.42095-1.66857,2.04855-3.69971,3.82535-5.69167,5.58243-3.89116,3.43241-7.63489,4.93687-12.70974,1.26442-4.56741-3.30522-9.2815-1.50364-12.05525,3.40724-.32653.57809-.7275,1.1636-.85981,1.79472-3.33268,15.89749-11.96314,29.92283-16.05233,45.53159-.61492,2.34721-1.36944,2.57118-3.29533,1.91799-39.67059-13.45438-77.95494-29.6776-110.37984-57.03496-15.96235-13.46767-29.26713-29.15177-35.42495-49.6489-7.57417-25.21164-.63673-47.51146,14.71796-67.75729,9.72172-12.81849,21.44742-23.61108,34.94831-32.4261.33216.29721.66431.59442.99647.89162Z" style="fill: #d63e36; stroke-width: 0px;"/>
  <path d="M65.73176,95.77323c.60299-.51333,1.08441-1.8648,1.99789-.9456.59904.60279-.43978,1.31722-1.00212,1.83699-.33147-.29698-.66362-.59419-.99578-.8914Z" style="fill: #d63e36; stroke-width: 0px;"/>
  <path d="M733.09974,257.15379c-.40584.88149-1.05792.90309-1.82529.52234.29379-.45032.58758-.90062.8813-1.35091.3146.27616.62926.55238.94398.82857Z" style="fill: #1b3053; stroke-width: 0px;"/>
</svg>